<svg xmlns="http://www.w3.org/2000/svg" width="39" height="30" viewBox="0 0 39 30"><g><g><path fill="#1c5e48" d="M3.463 27.573C4.778 28.897 6.969 30 9.38 30c2.192 0 3.945-.662 5.48-2.206 1.315-1.544 2.191-3.53 2.191-5.515 0-4.191-3.068-7.28-7.013-7.72-1.534-.221-3.069 0-4.164.661.438-3.308 1.972-8.382 9.205-12.352L13.106 0C5.436 3.529-.044 10.367-.044 18.088c0 4.412 1.315 7.059 3.507 9.485zm21.917 0C26.695 28.897 28.887 30 31.298 30c2.191 0 4.164-.662 5.479-2.206 1.315-1.544 2.192-3.53 2.192-5.515 0-4.191-3.069-7.28-7.014-7.72-1.534-.221-3.068 0-4.164.661.438-3.308 1.972-8.382 9.205-12.352L35.024 0c-7.671 3.529-13.15 10.367-13.15 18.088 0 4.412 1.314 7.059 3.506 9.485z"/></g></g></svg>