<svg xmlns="http://www.w3.org/2000/svg" width="39" height="30" viewBox="0 0 39 30"><g><g><path fill="#1c5e48" d="M35.475 2.426C34.16 1.103 31.968 0 29.557 0c-2.192 0-3.945.662-5.48 2.207-1.314 1.544-2.191 3.529-2.191 5.514 0 4.192 3.068 7.28 7.013 7.72 1.535.222 3.069 0 4.165-.66-.439 3.308-1.973 8.381-9.206 12.352L25.831 30c7.671-3.53 13.15-10.368 13.15-18.088 0-4.412-1.315-7.06-3.506-9.486zm-21.918 0C12.242 1.103 10.051 0 7.64 0 5.448 0 3.475.661 2.16 2.206.845 3.75-.03 5.735-.03 7.72c0 4.192 3.068 7.28 7.013 7.72 1.534.222 3.069 0 4.164-.66-.438 3.308-1.972 8.381-9.205 12.352L3.914 30c7.67-3.53 13.15-10.368 13.15-18.088 0-4.412-1.315-7.06-3.507-9.486z"/></g></g></svg>