<?xml version="1.0" encoding="UTF-8"?>
<svg id="SVGDoc" width="32" height="30" xmlns="http://www.w3.org/2000/svg" version="1.1" xmlns:xlink="http://www.w3.org/1999/xlink" xmlns:avocode="https://avocode.com/" viewBox="0 0 32 30"><defs></defs><desc>Generated with Avocode.</desc><g><g><title>Shape 15 copy 2</title><path d="M-0.00075,23.33316v-16.66654c0,-3.68207 2.99915,-6.66687 6.6988,-6.66687h8.37341c0.92503,0 1.67484,0.74636 1.67484,1.6664c0,0.92067 -0.74982,1.66703 -1.67484,1.66703h-8.37341c-1.84982,0 -3.34946,1.49208 -3.34946,3.33343v16.66654c0,1.84072 1.49963,3.33343 3.34946,3.33343h16.74694c1.84982,0 3.34946,-1.49271 3.34946,-3.33343v-8.08343c0,-0.92067 0.7497,-1.66703 1.67461,-1.66703c0.92491,0 1.67473,0.74636 1.67473,1.66703v8.08343c0,3.68144 -2.99915,6.66624 -6.6988,6.66624h-16.74694c-3.69965,0 -6.6988,-2.9848 -6.6988,-6.66624zM31.33283,2.14947c0.65678,0.65385 0.65678,1.7136 0,2.36682l-15.07233,15.00013c-0.0032,0.00315 -0.00641,0.00629 -0.00961,0.00944c-0.65678,0.64819 -1.71707,0.64378 -2.36835,-0.00944l-6.69891,-6.66687c-0.65655,-0.65322 -0.65655,-1.71297 0,-2.36682c0.65666,-0.65322 1.72142,-0.65322 2.3782,0l5.50964,5.50013l13.8834,-13.8334c0.65655,-0.65322 1.72131,-0.65322 2.37797,0z" fill="#154f3a" fill-opacity="1"></path></g></g></svg>