<?xml version="1.0" encoding="UTF-8"?>
<svg id="SVGDoc" width="20" height="20" xmlns="http://www.w3.org/2000/svg" version="1.1" xmlns:xlink="http://www.w3.org/1999/xlink" xmlns:avocode="https://avocode.com/" viewBox="0 0 20 20"><defs></defs><desc>Generated with Avocode.</desc><g><g><title>Shape 20</title><path d="M-0.00005,9.9988c0,-5.52066 4.47865,-9.99964 9.99996,-9.99964c5.52143,0 10.00008,4.47897 10.00008,9.99964c0,5.52181 -4.47865,9.99964 -10.00008,9.99964c-5.52132,0 -9.99996,-4.47783 -9.99996,-9.99964zM9.2858,4.28472v5.71408c0,0.21809 0.09979,0.42127 0.26779,0.55729l3.57136,2.85704c0.13206,0.10733 0.28931,0.15726 0.44643,0.15726c0.2108,0 0.41782,-0.09298 0.55721,-0.26745c0.24639,-0.30763 0.19638,-0.75702 -0.11078,-1.00438l-3.30357,-2.64181v-5.37201c0,-0.39314 -0.32135,-0.71397 -0.71434,-0.71397c-0.39288,0 -0.71423,0.32083 -0.71423,0.71397z" fill="#154f3a" fill-opacity="1"></path></g></g></svg>