<?xml version="1.0" encoding="utf-8"?>
<!-- Generator: Adobe Illustrator 16.0.0, SVG Export Plug-In . SVG Version: 6.00 Build 0)  -->
<!DOCTYPE svg PUBLIC "-//W3C//DTD SVG 1.1//EN" "http://www.w3.org/Graphics/SVG/1.1/DTD/svg11.dtd">
<svg version="1.1" id="Layer_1" xmlns="http://www.w3.org/2000/svg" xmlns:xlink="http://www.w3.org/1999/xlink" x="0px" y="0px"
	 width="267.667px" height="114.333px" viewBox="-11.833 -10.333 267.667 114.333"
	 enable-background="new -11.833 -10.333 267.667 114.333" xml:space="preserve">
<path fill="#FFFFFF" d="M18.135,44.674L7.118,12.506v32.168H0.146V3.062h10.316L21.305,34.94L32.147,3.062h10.081v41.613h-6.982
	V12.506L24.231,44.674H18.135z"/>
<path fill="#FFFFFF" d="M46.766,36.215c0-5.798,4.397-8.346,10.316-9.563l8.497-1.738v-0.521c0-2.899-1.523-4.694-5.274-4.694
	c-3.337,0-5.101,1.506-5.919,4.462l-6.624-1.506c1.523-5.044,6.035-8.986,12.834-8.986c7.386,0,11.84,3.477,11.84,10.492v13.098
	c0,1.738,0.761,2.259,2.695,2.026v5.391c-5.101,0.577-7.792-0.407-8.85-2.899c-1.935,2.146-5.158,3.42-9.143,3.42
	C51.277,45.201,46.766,41.663,46.766,36.215z M65.579,30.247l-6.624,1.393c-2.989,0.639-5.217,1.563-5.217,4.287
	c0,2.377,1.759,3.708,4.455,3.708c3.75,0,7.386-1.971,7.386-5.68V30.247z"/>
<path fill="#FFFFFF" d="M91.697,39.284c3.75,0,6.035-2.434,6.917-5.798l6.035,3.013c-1.582,4.927-6.269,8.811-12.951,8.811
	c-8.788,0-15.12-6.433-15.12-15.821c0-9.389,6.327-15.821,15.12-15.821c6.624,0,11.194,3.709,12.835,8.578l-5.919,3.188
	c-0.876-3.301-3.166-5.797-6.917-5.797c-4.803,0-8.088,3.651-8.088,9.852C83.608,35.694,86.889,39.284,91.697,39.284z"/>
<path fill="#FFFFFF" d="M115.529,27.058l11.84-12.808h8.615L124.38,26.073l12.542,18.605h-8.146l-9.201-13.736l-4.042,4.059v9.677
	h-7.031V3.062h7.031v23.996H115.529z"/>
<path fill="#FFFFFF" d="M137.254,36.215c0-5.798,4.396-8.346,10.315-9.563l8.497-1.738v-0.521c0-2.899-1.523-4.694-5.273-4.694
	c-3.338,0-5.102,1.506-5.92,4.462l-6.623-1.506c1.523-5.044,6.034-8.986,12.836-8.986c7.385,0,11.838,3.477,11.838,10.492v13.098
	c0,1.738,0.762,2.259,2.696,2.026v5.391c-5.101,0.577-7.792-0.407-8.851-2.899c-1.935,2.146-5.158,3.42-9.143,3.42
	C141.765,45.201,137.254,41.663,137.254,36.215z M156.066,30.247l-6.624,1.393c-2.989,0.639-5.216,1.563-5.216,4.287
	c0,2.377,1.758,3.708,4.454,3.708c3.751,0,7.386-1.971,7.386-5.68V30.247z"/>
<path fill="#FFFFFF" d="M170.934,55.342c-1.466,0-1.878-0.058-2.875-0.175v-5.855c0.939,0.113,1.467,0.176,2.343,0.176
	c2.341,0,3.458-0.641,4.454-3.074l1.174-2.842l-11.193-29.326h7.385l7.558,21.33l7.386-21.33h7.266l-12.658,33.271
	C180.019,52.153,177.321,55.342,170.934,55.342z"/>
<path fill="#FFFFFF" d="M29.965,93.302c-1.7,2.781-5.8,4.927-11.313,4.927C7.757,98.233-0.333,89.536-0.333,76.96
	c0-12.633,8.146-21.618,19.454-21.618c8.617,0,14.416,4.581,16.993,11.941l-7.15,2.378c-1.231-4.926-4.746-7.769-9.784-7.769
	c-7.094,0-12.012,5.969-12.012,14.954c0,8.986,4.923,15.011,12.13,15.011c6.098,0,10.082-4.287,10.317-10.202H18.538v-6.49h18.285
	v22.43h-6.858V93.302z"/>
<path fill="#FFFFFF" d="M55.176,98.233c-8.673,0-14.828-6.376-14.828-15.821c0-9.444,6.155-15.82,14.828-15.82
	c8.673,0,14.827,6.376,14.827,15.82C70.003,91.857,63.849,98.233,55.176,98.233z M55.176,92.378c4.746,0,7.734-3.765,7.734-9.97
	c0-6.206-2.988-9.972-7.734-9.972c-4.747,0-7.735,3.766-7.735,9.972C47.441,88.613,50.429,92.378,55.176,92.378z"/>
<path fill="#FFFFFF" d="M87.917,98.233c-8.673,0-14.828-6.376-14.828-15.821c0-9.444,6.154-15.82,14.828-15.82
	c8.673,0,14.828,6.376,14.828,15.82C102.744,91.857,96.589,98.233,87.917,98.233z M87.917,92.378c4.746,0,7.735-3.765,7.735-9.97
	c0-6.206-2.989-9.972-7.735-9.972c-4.747,0-7.735,3.766-7.735,9.972C80.182,88.613,83.17,92.378,87.917,92.378z"/>
<path fill="#FFFFFF" d="M105.832,82.407c0-8.636,4.924-15.821,13.54-15.821c3.985,0,6.916,1.563,8.85,3.828V55.98h7.031v41.613
	h-7.031v-3.188c-1.934,2.26-4.864,3.828-8.85,3.828C110.755,98.233,105.832,91.043,105.832,82.407z M120.774,72.668
	c-5.1,0-7.854,3.941-7.854,9.739s2.754,9.738,7.854,9.738c4.334,0,7.621-3.188,7.621-8.811V81.54
	C128.395,75.799,125.113,72.668,120.774,72.668z"/>
<path fill="#FFFFFF" d="M162.658,67.164l5.508,20.17l5.449-20.17h6.975l-9.258,30.43h-6.098l-5.627-19.938l-5.627,19.938h-6.098
	l-9.258-30.43h7.209l5.564,20.17l5.451-20.17H162.658z"/>
<path fill="#FFFFFF" d="M183.855,55.98h7.266v7.129h-7.266V55.98z M191.006,97.594h-7.029v-30.43h7.029V97.594z"/>
<path fill="#FFFFFF" d="M196.786,67.165h7.031v3.246c1.758-2.029,4.511-3.828,8.496-3.828c6.446,0,10.315,4.404,10.315,10.955
	v20.057h-7.03V79.571c0-3.766-1.522-6.494-5.394-6.494c-3.164,0-6.388,2.316-6.388,6.665v17.853h-7.031V67.165z"/>
<path fill="#FFFFFF" d="M234.608,29.448H250V-1h-30.784v15.224h15.393V29.448z"/>
<path fill="#FFFFFF" d="M234.608,29.447h-15.393V14.223h-15.393v30.448h30.785V29.447z"/>
</svg>
