<?xml version="1.0" encoding="utf-8"?>
<!-- Generator: Adobe Illustrator 16.0.0, SVG Export Plug-In . SVG Version: 6.00 Build 0)  -->
<!DOCTYPE svg PUBLIC "-//W3C//DTD SVG 1.1//EN" "http://www.w3.org/Graphics/SVG/1.1/DTD/svg11.dtd">
<svg version="1.1" id="Layer_1" xmlns="http://www.w3.org/2000/svg" xmlns:xlink="http://www.w3.org/1999/xlink" x="0px" y="0px"
	 width="416px" height="450px" viewBox="0 0 416 450" enable-background="new 0 0 416 450" xml:space="preserve">
<path fill="#010101" d="M108.198,214.223l-10.856-31.7v31.7h-6.872v-41.007h10.166l10.686,31.414l10.684-31.414h9.935v41.007h-6.881
	v-31.7l-10.854,31.7H108.198z"/>
<path fill="#010101" d="M136.412,205.886c0-5.713,4.333-8.224,10.166-9.424l8.373-1.712v-0.513c0-2.857-1.501-4.626-5.197-4.626
	c-3.289,0-5.026,1.484-5.833,4.397l-6.527-1.485c1.501-4.971,5.947-8.854,12.647-8.854c7.278,0,11.668,3.426,11.668,10.339v12.907
	c0,1.712,0.75,2.226,2.656,1.997v5.313c-5.026,0.568-7.679-0.401-8.721-2.857c-1.907,2.115-5.083,3.371-9.011,3.371
	C140.858,214.741,136.412,211.254,136.412,205.886z M154.951,200.005l-6.527,1.373c-2.945,0.629-5.141,1.54-5.141,4.225
	c0,2.343,1.733,3.655,4.39,3.655c3.695,0,7.278-1.942,7.278-5.597V200.005z"/>
<path fill="#010101" d="M180.688,208.911c3.696,0,5.946-2.398,6.815-5.713l5.947,2.969c-1.559,4.855-6.178,8.683-12.763,8.683
	c-8.659,0-14.899-6.339-14.899-15.59c0-9.252,6.234-15.59,14.899-15.59c6.527,0,11.03,3.655,12.648,8.453l-5.833,3.142
	c-0.863-3.253-3.119-5.713-6.815-5.713c-4.733,0-7.971,3.598-7.971,9.709C172.718,205.373,175.95,208.911,180.688,208.911z"/>
<path fill="#010101" d="M204.173,196.862l11.668-12.622h8.49l-11.436,11.651l12.36,18.334h-8.028l-9.066-13.536l-3.982,4v9.536
	h-6.929v-41.011h6.929v23.646H204.173z"/>
<path fill="#010101" d="M225.581,205.886c0-5.713,4.332-8.224,10.166-9.424l8.373-1.712v-0.513c0-2.857-1.5-4.626-5.198-4.626
	c-3.288,0-5.026,1.484-5.831,4.397l-6.526-1.485c1.499-4.971,5.946-8.854,12.648-8.854c7.274,0,11.665,3.426,11.665,10.339v12.907
	c0,1.712,0.749,2.226,2.656,1.997v5.313c-5.026,0.568-7.678-0.401-8.722-2.857c-1.906,2.115-5.083,3.371-9.009,3.371
	C230.028,214.741,225.581,211.254,225.581,205.886z M244.12,200.005l-6.526,1.373c-2.947,0.629-5.142,1.54-5.142,4.225
	c0,2.343,1.734,3.655,4.391,3.655c3.694,0,7.277-1.942,7.277-5.597V200.005z"/>
<path fill="#010101" d="M258.771,224.734c-1.445,0-1.852-0.057-2.834-0.174v-5.769c0.924,0.112,1.445,0.173,2.309,0.173
	c2.308,0,3.407-0.631,4.389-3.029l1.157-2.801l-11.03-28.899h7.277l7.448,21.02l7.277-21.02h7.16l-12.476,32.787
	C267.722,221.592,265.065,224.734,258.771,224.734z"/>
<path fill="#010101" d="M119.856,262.142c-1.676,2.739-5.716,4.855-11.148,4.855C97.972,267.001,90,258.431,90,246.038
	c0-12.448,8.028-21.304,19.17-21.304c8.491,0,14.206,4.514,16.745,11.768l-7.046,2.344c-1.213-4.855-4.677-7.656-9.641-7.656
	c-6.991,0-11.837,5.881-11.837,14.736c0,8.854,4.852,14.792,11.954,14.792c6.008,0,9.935-4.224,10.167-10.053h-10.917v-6.396h18.019
	v22.103h-6.758V262.142z"/>
<path fill="#010101" d="M144.699,267.001c-8.546,0-14.611-6.283-14.611-15.589c0-9.309,6.065-15.592,14.611-15.592
	c8.547,0,14.611,6.283,14.611,15.592C159.311,260.718,153.246,267.001,144.699,267.001z M144.699,261.23
	c4.677,0,7.622-3.709,7.622-9.823c0-6.116-2.945-9.827-7.622-9.827s-7.622,3.711-7.622,9.827
	C137.077,257.521,140.022,261.23,144.699,261.23z"/>
<path fill="#010101" d="M176.963,267.001c-8.547,0-14.611-6.283-14.611-15.589c0-9.309,6.064-15.592,14.611-15.592
	s14.611,6.283,14.611,15.592C191.574,260.718,185.51,267.001,176.963,267.001z M176.963,261.23c4.677,0,7.622-3.709,7.622-9.823
	c0-6.116-2.945-9.827-7.622-9.827s-7.622,3.711-7.622,9.827C169.341,257.521,172.286,261.23,176.963,261.23z"/>
<path fill="#010101" d="M194.617,251.405c0-8.51,4.852-15.589,13.342-15.589c3.928,0,6.816,1.538,8.722,3.771v-14.225h6.928v41.006
	h-6.928v-3.141c-1.905,2.228-4.794,3.772-8.722,3.772C199.469,267.001,194.617,259.915,194.617,251.405z M209.342,241.809
	c-5.025,0-7.739,3.883-7.739,9.597s2.714,9.597,7.739,9.597c4.271,0,7.508-3.14,7.508-8.683v-1.767
	C216.85,244.893,213.618,241.809,209.342,241.809z"/>
<path fill="#010101" d="M250.615,236.385l5.429,19.875l5.371-19.875h6.871l-9.124,29.984h-6.007l-5.546-19.646l-5.545,19.646h-6.007
	l-9.124-29.984h7.104l5.484,19.875l5.369-19.875H250.615z"/>
<path fill="#010101" d="M271.505,225.363h7.16v7.025h-7.16V225.363z M278.552,266.369h-6.928v-29.984h6.928V266.369z"/>
<path fill="#010101" d="M284.247,236.385h6.927v3.199c1.732-1.999,4.445-3.772,8.373-3.772c6.353,0,10.166,4.341,10.166,10.795
	v19.766h-6.928v-17.76c0-3.712-1.502-6.403-5.314-6.403c-3.119,0-6.297,2.283-6.297,6.57v17.593h-6.927V236.385z"/>
<path fill="#1F5F49" d="M321.518,199.218h15.168v-30.005h-30.337v15.002h15.169V199.218z"/>
<path fill="#1F5F49" d="M321.518,199.217h-15.169v-15.002h-15.168v30.004h30.337V199.217z"/>
</svg>
